<svg xmlns="http://www.w3.org/2000/svg" viewBox="0 0 640 90" width="640" height="90" role="img" aria-label="Dải hoa ngăn mục">
  <path d="M 20 45 H 236" stroke="#E5DCD1" stroke-width="1.4" fill="none"/>
  <path d="M 404 45 H 620" stroke="#E5DCD1" stroke-width="1.4" fill="none"/>
  <g transform="translate(284 45) rotate(-16) scale(0.2115)" fill="#B8730E" fill-opacity="0.3" stroke="#B8730E" stroke-width="10.400" stroke-linejoin="round" stroke-linecap="round">
  <path d="M 0 -3 C -10 -16 -27 -24 -31 -41 C -35 -57 -31 -70 -19 -73 C -12 -75 -8 -78 0 -78 C 8 -78 12 -75 19 -73 C 31 -70 35 -57 31 -41 C 27 -24 10 -16 0 -3 Z" transform="rotate(45)"/>
  <path d="M 0 -3 C -10 -16 -27 -24 -31 -41 C -35 -57 -31 -70 -19 -73 C -12 -75 -8 -78 0 -78 C 8 -78 12 -75 19 -73 C 31 -70 35 -57 31 -41 C 27 -24 10 -16 0 -3 Z" transform="rotate(135)"/>
  <path d="M 0 -3 C -10 -16 -27 -24 -31 -41 C -35 -57 -31 -70 -19 -73 C -12 -75 -8 -78 0 -78 C 8 -78 12 -75 19 -73 C 31 -70 35 -57 31 -41 C 27 -24 10 -16 0 -3 Z" transform="rotate(225)"/>
  <path d="M 0 -3 C -10 -16 -27 -24 -31 -41 C -35 -57 -31 -70 -19 -73 C -12 -75 -8 -78 0 -78 C 8 -78 12 -75 19 -73 C 31 -70 35 -57 31 -41 C 27 -24 10 -16 0 -3 Z" transform="rotate(315)"/>
  <g><path d="M 0 0 L -16.9 -1.5" stroke="#7A4C06" stroke-width="2.6" stroke-linecap="round" fill="none"/><path d="M 0 0 L -14.2 -9.3" stroke="#7A4C06" stroke-width="2.6" stroke-linecap="round" fill="none"/><path d="M 0 0 L -8.1 -15.0" stroke="#7A4C06" stroke-width="2.6" stroke-linecap="round" fill="none"/><path d="M 0 0 L 0.0 -17.0" stroke="#7A4C06" stroke-width="2.6" stroke-linecap="round" fill="none"/><path d="M 0 0 L 8.1 -15.0" stroke="#7A4C06" stroke-width="2.6" stroke-linecap="round" fill="none"/><path d="M 0 0 L 14.2 -9.3" stroke="#7A4C06" stroke-width="2.6" stroke-linecap="round" fill="none"/><path d="M 0 0 L 16.9 -1.5" stroke="#7A4C06" stroke-width="2.6" stroke-linecap="round" fill="none"/><circle r="10" fill="#7A4C06" fill-opacity="1" stroke="none"/></g>
  </g>
  <g transform="translate(320 45) rotate(0) scale(0.2962)" fill="#D1352B" fill-opacity="0.32" stroke="#D1352B" stroke-width="7.429" stroke-linejoin="round" stroke-linecap="round">
  <path d="M 0 -3 C -10 -16 -27 -24 -31 -41 C -35 -57 -31 -70 -19 -73 C -12 -75 -8 -78 0 -78 C 8 -78 12 -75 19 -73 C 31 -70 35 -57 31 -41 C 27 -24 10 -16 0 -3 Z" transform="rotate(45)"/>
  <path d="M 0 -3 C -10 -16 -27 -24 -31 -41 C -35 -57 -31 -70 -19 -73 C -12 -75 -8 -78 0 -78 C 8 -78 12 -75 19 -73 C 31 -70 35 -57 31 -41 C 27 -24 10 -16 0 -3 Z" transform="rotate(135)"/>
  <path d="M 0 -3 C -10 -16 -27 -24 -31 -41 C -35 -57 -31 -70 -19 -73 C -12 -75 -8 -78 0 -78 C 8 -78 12 -75 19 -73 C 31 -70 35 -57 31 -41 C 27 -24 10 -16 0 -3 Z" transform="rotate(225)"/>
  <path d="M 0 -3 C -10 -16 -27 -24 -31 -41 C -35 -57 -31 -70 -19 -73 C -12 -75 -8 -78 0 -78 C 8 -78 12 -75 19 -73 C 31 -70 35 -57 31 -41 C 27 -24 10 -16 0 -3 Z" transform="rotate(315)"/>
  <g><path d="M 0 0 L -16.9 -1.5" stroke="#A82419" stroke-width="2.6" stroke-linecap="round" fill="none"/><path d="M 0 0 L -14.2 -9.3" stroke="#A82419" stroke-width="2.6" stroke-linecap="round" fill="none"/><path d="M 0 0 L -8.1 -15.0" stroke="#A82419" stroke-width="2.6" stroke-linecap="round" fill="none"/><path d="M 0 0 L 0.0 -17.0" stroke="#A82419" stroke-width="2.6" stroke-linecap="round" fill="none"/><path d="M 0 0 L 8.1 -15.0" stroke="#A82419" stroke-width="2.6" stroke-linecap="round" fill="none"/><path d="M 0 0 L 14.2 -9.3" stroke="#A82419" stroke-width="2.6" stroke-linecap="round" fill="none"/><path d="M 0 0 L 16.9 -1.5" stroke="#A82419" stroke-width="2.6" stroke-linecap="round" fill="none"/><circle r="10" fill="#A82419" fill-opacity="1" stroke="none"/></g>
  </g>
  <g transform="translate(356 45) rotate(16) scale(0.2115)" fill="#5E3454" fill-opacity="0.28" stroke="#5E3454" stroke-width="10.400" stroke-linejoin="round" stroke-linecap="round">
  <path d="M 0 -3 C -10 -16 -27 -24 -31 -41 C -35 -57 -31 -70 -19 -73 C -12 -75 -8 -78 0 -78 C 8 -78 12 -75 19 -73 C 31 -70 35 -57 31 -41 C 27 -24 10 -16 0 -3 Z" transform="rotate(45)"/>
  <path d="M 0 -3 C -10 -16 -27 -24 -31 -41 C -35 -57 -31 -70 -19 -73 C -12 -75 -8 -78 0 -78 C 8 -78 12 -75 19 -73 C 31 -70 35 -57 31 -41 C 27 -24 10 -16 0 -3 Z" transform="rotate(135)"/>
  <path d="M 0 -3 C -10 -16 -27 -24 -31 -41 C -35 -57 -31 -70 -19 -73 C -12 -75 -8 -78 0 -78 C 8 -78 12 -75 19 -73 C 31 -70 35 -57 31 -41 C 27 -24 10 -16 0 -3 Z" transform="rotate(225)"/>
  <path d="M 0 -3 C -10 -16 -27 -24 -31 -41 C -35 -57 -31 -70 -19 -73 C -12 -75 -8 -78 0 -78 C 8 -78 12 -75 19 -73 C 31 -70 35 -57 31 -41 C 27 -24 10 -16 0 -3 Z" transform="rotate(315)"/>
  <g><path d="M 0 0 L -16.9 -1.5" stroke="#3D2038" stroke-width="2.6" stroke-linecap="round" fill="none"/><path d="M 0 0 L -14.2 -9.3" stroke="#3D2038" stroke-width="2.6" stroke-linecap="round" fill="none"/><path d="M 0 0 L -8.1 -15.0" stroke="#3D2038" stroke-width="2.6" stroke-linecap="round" fill="none"/><path d="M 0 0 L 0.0 -17.0" stroke="#3D2038" stroke-width="2.6" stroke-linecap="round" fill="none"/><path d="M 0 0 L 8.1 -15.0" stroke="#3D2038" stroke-width="2.6" stroke-linecap="round" fill="none"/><path d="M 0 0 L 14.2 -9.3" stroke="#3D2038" stroke-width="2.6" stroke-linecap="round" fill="none"/><path d="M 0 0 L 16.9 -1.5" stroke="#3D2038" stroke-width="2.6" stroke-linecap="round" fill="none"/><circle r="10" fill="#3D2038" fill-opacity="1" stroke="none"/></g>
  </g>
</svg>